<svg xmlns="http://www.w3.org/2000/svg" width="30" height="38" viewBox="0 0 30 38">
    <path fill="#1a1311" d="M367.335 295.117h-.923l-.914-3.465a.75.75 0 0 0-.733-.546h-23.454a.751.751 0 0 0-.734.545l-.914 3.466h-.923a.688.688 0 0 0-.7.67v3.813a.688.688 0 0 0 .7.67h.9l.384 2.75h-.14a.776.776 0 0 0-.573.25.7.7 0 0 0-.176.576l3.158 20.446a.752.752 0 0 0 .75.616h.044l.5 3.566a.747.747 0 0 0 .749.626h17.4a.747.747 0 0 0 .75-.626l.5-3.566h.045a.751.751 0 0 0 .749-.616l3.158-20.446a.7.7 0 0 0-.176-.576.774.774 0 0 0-.573-.25h-.14l.384-2.75h.9a.689.689 0 0 0 .7-.67v-3.817a.688.688 0 0 0-.698-.666zm-5.875 29.8l-.384 2.749H345l-.384-2.749zm-20.7-20.446h24.556l-2.936 19H343.7zm.792-1.443l-.384-2.75h23.742l-.385 2.75zm-.278-8.095l.627-2.382h22.274l.628 2.382zm25.359 1.527v2.476h-27.19v-2.476z" transform="translate(-338.038 -291.106)"/>
</svg>
