<svg xmlns="http://www.w3.org/2000/svg" width="48.956" height="27.891" viewBox="0 0 48.956 27.891">
    <defs>
        <style>
            .cls-1{fill:#1a1311}
        </style>
    </defs>
    <g id="Group_237" transform="translate(-120.141 -250.63)">
        <path id="Path_201" d="M166.642 269.978a1.5 1.5 0 0 0-2 .714c-2.472 5.227-6.827 4.84-6.995 4.819a1.364 1.364 0 0 0-.181-.011h-26.3c-4.008 0-6.559-4.808-6.585-4.856a1.5 1.5 0 0 0-2.665 1.376c.135.265 3.4 6.48 9.25 6.48H157.4c.11.009.3.021.541.021 1.755 0 6.593-.575 9.417-6.546a1.5 1.5 0 0 0-.716-1.997z" class="cls-1"/>
        <path id="Path_202" d="M135.832 266.337a32.592 32.592 0 0 1 7.787-1.069V250.65a34.177 34.177 0 0 0-14.644 3.293l5.689 12.677z" class="cls-1"/>
        <path id="Path_203" d="M160.216 254.047a32.361 32.361 0 0 0-12.107-3.348c-.859-.043-1.682-.062-2.49-.069v14.627a41.892 41.892 0 0 1 9.047 1.16z" class="cls-1"/>
        <path id="Path_204" d="M126.9 268.507l5.786-1.406-5.462-12.172c-4.71 2.942-6.083 6.308-6.083 6.308-4.107 10.57 5.759 7.27 5.759 7.27z" class="cls-1"/>
        <path id="Path_205" d="M168.879 263.81a16.26 16.26 0 0 0-6.927-8.745l-5.328 11.873c.723.212 1.454.445 2.193.707 12.651 4.479 10.062-3.835 10.062-3.835z" class="cls-1"/>
    </g>
</svg>
