<svg xmlns="http://www.w3.org/2000/svg" width="39.275" height="32" viewBox="0 0 39.275 32">
    <g>
        <path d="M251.279 266.5c.022-.013.044-.02.067-.032-.132-.889-1.145-1.545-1.672-1.825a1.732 1.732 0 0 1-.762-1.247 3.092 3.092 0 0 1 .972-2.009.861.861 0 0 0 .27-.57c.069-1.071.34-1.774.763-1.982.539-.263 1.5.165 1.884.414a.889.889 0 0 0 .973 0 2.8 2.8 0 0 1 2.064-.613 1.292 1.292 0 0 1 .8.594.88.88 0 0 0 1.646-.215c.03-.15.066-.225.063-.244a3.033 3.033 0 0 1 1.327.753.885.885 0 0 0 1.359-.22c.315-.562.663-.918.931-.953a.634.634 0 0 1 .412.14c.511 1.264 1.136 1.872 1.857 1.811.985-.085 1.2-1.263 1.271-1.65a1.313 1.313 0 0 1 .524-.933 1.771 1.771 0 0 1 1.159-.16 2.424 2.424 0 0 0 1.636.171 2.142 2.142 0 0 0 1.318-1.12c.18-.339 1.152-.034 1.525.15a.9.9 0 0 0 1.269-.676 1.439 1.439 0 0 1 .466.046c.073.018.135.036.188.054.193.065.267.122.276.116a1.8 1.8 0 0 1-.474.785 7.928 7.928 0 0 0-.6.586.867.867 0 0 0-.156.254 1.37 1.37 0 0 1 .185-.031 2.234 2.234 0 0 1 1.953.3 1.8 1.8 0 0 1 .966-.451.606.606 0 0 1 .469.244.281.281 0 0 1 .067.347 1.774 1.774 0 0 1-.6.7 5.122 5.122 0 0 1 .427.617 5.152 5.152 0 0 1 1.817-.717 1.984 1.984 0 0 0-.418-2.112 2.367 2.367 0 0 0-1.768-.806h-.053c.663-1.242 2.61-4.117 4.618-4.38a4.638 4.638 0 0 1 .848 3.271 3.385 3.385 0 0 1-2.163 1.711l-.852.2.416 1.678.852-.2a4.985 4.985 0 0 0 .784-.26 5.525 5.525 0 0 0 1.645 2.926 4.191 4.191 0 0 1-1.3.153 6.165 6.165 0 0 1 .431 1.755c2.525-.106 3.064-1.4 3.16-1.742a.879.879 0 0 0-.429-1.007 3.726 3.726 0 0 1-1.828-2.939l-.01-.3a4.981 4.981 0 0 0 .936-1.353.937.937 0 0 0 .036-.105c.7-2.548-1.3-5.09-1.384-5.2a.873.873 0 0 0-.643-.329 4.637 4.637 0 0 0-2.7.784c-.571-.991-1.756-2.242-3.282-1.762-.8.071-2.265.927-3.232 5.8l-.031.154a2.392 2.392 0 0 0-2.964.932.509.509 0 0 1-.24.259.713.713 0 0 1-.415-.072.949.949 0 0 0-.222-.092 3.584 3.584 0 0 0-2.616.352 2.822 2.822 0 0 0-1.144 1.453l-.008-.02a.874.874 0 0 0-.169-.278 2.489 2.489 0 0 0-2-.778 2.62 2.62 0 0 0-1.712 1.009 2.813 2.813 0 0 0-2.277-.513 1.623 1.623 0 0 0-.522.281 2.948 2.948 0 0 0-.947-.438 4.053 4.053 0 0 0-3.042.555 3.649 3.649 0 0 0-3.125-.242c-.977.474-1.553 1.518-1.715 3.1a4.541 4.541 0 0 0-1.269 3.091 3.428 3.428 0 0 0 1.5 2.573.255.255 0 0 0 .035.022 4.021 4.021 0 0 1 2.579.435zm23.767-15.856a.89.89 0 0 0 .248-.057c.677-.264 1.384 1.159 1.4 1.187l.008.018a14.832 14.832 0 0 0-2.255 2.878 3.428 3.428 0 0 0-.59-.207 3.3 3.3 0 0 0-.411-.081c.689-3.057 1.454-3.653 1.6-3.739z" transform="translate(-244.876 -248.815)"/>
        <path fill="#1a1311" d="M281.837 271.091a.877.877 0 0 0-.429-1.007 3.726 3.726 0 0 1-1.828-2.939l-.01-.3a4.955 4.955 0 0 0 .936-1.353.938.938 0 0 0 .036-.105c.7-2.548-1.3-5.09-1.384-5.2a.877.877 0 0 0-.643-.33 4.64 4.64 0 0 0-2.7.785c-.571-.991-1.755-2.243-3.282-1.762-.8.071-2.264.927-3.232 5.8l-.03.154a2.392 2.392 0 0 0-2.964.932c-.054.1-.139.229-.241.258a.707.707 0 0 1-.415-.071.933.933 0 0 0-.222-.092 3.584 3.584 0 0 0-2.616.352 2.811 2.811 0 0 0-1.143 1.453l-.008-.02a.877.877 0 0 0-.17-.278 2.487 2.487 0 0 0-2-.778 2.623 2.623 0 0 0-1.713 1.009 2.812 2.812 0 0 0-2.277-.513 1.614 1.614 0 0 0-.521.28 2.98 2.98 0 0 0-.947-.437 4.054 4.054 0 0 0-3.043.555 3.649 3.649 0 0 0-3.125-.242c-.977.474-1.553 1.518-1.714 3.1a4.544 4.544 0 0 0-1.27 3.091 3.428 3.428 0 0 0 1.5 2.573.926.926 0 0 0 .132.084 2.933 2.933 0 0 1 .834.616 3.306 3.306 0 0 0 1.679 2.438 2.487 2.487 0 0 0 .351.146 3.263 3.263 0 0 0 2.571-.31 6.61 6.61 0 0 0 4.452 1.973 4.359 4.359 0 0 0 3.042-1.5 5.544 5.544 0 0 0 3.782 1.044 4.359 4.359 0 0 0 2.871-1.857 3.811 3.811 0 0 0 2.981.315 3.534 3.534 0 0 0 2.034-2.566 1.933 1.933 0 0 0 1.345-1 5.813 5.813 0 0 0 2.736-2.537 3.029 3.029 0 0 0 .149-.414c5.447 1.287 6.368-.889 6.496-1.347zm-9.071-10.491a.86.86 0 0 0 .247-.058c.677-.263 1.384 1.159 1.4 1.188l.008.018a14.832 14.832 0 0 0-2.255 2.878 3.4 3.4 0 0 0-.59-.207 3.3 3.3 0 0 0-.411-.081c.689-3.053 1.458-3.65 1.601-3.738zm.84 11.505a4.263 4.263 0 0 1-2.137 1.824.87.87 0 0 0-.552.6c-.05.189-.256.21-.406.2a.873.873 0 0 0-.974.694c-.145.744-.452 1.682-1.09 1.925a2.755 2.755 0 0 1-2.1-.564.885.885 0 0 0-1.294.266 3.08 3.08 0 0 1-2.089 1.746 4.437 4.437 0 0 1-3.065-1.167.883.883 0 0 0-1.316.131 2.994 2.994 0 0 1-2.259 1.478c-1.808.086-3.548-1.88-3.565-1.9a.886.886 0 0 0-1.158-.154 2 2 0 0 1-1.753.442 1.616 1.616 0 0 1-.753-1.05c-.031-.966-1.141-1.675-1.7-1.97a1.733 1.733 0 0 1-.763-1.248 3.1 3.1 0 0 1 .972-2.008.857.857 0 0 0 .27-.57c.069-1.071.34-1.774.763-1.982.539-.263 1.5.165 1.884.413a.888.888 0 0 0 .973 0 2.8 2.8 0 0 1 2.064-.614 1.3 1.3 0 0 1 .8.6.881.881 0 0 0 1.646-.215c.03-.15.066-.225.063-.245a3.048 3.048 0 0 1 1.327.754.884.884 0 0 0 1.359-.22c.315-.562.663-.918.931-.953a.637.637 0 0 1 .413.14c.51 1.264 1.135 1.872 1.856 1.811.986-.086 1.2-1.263 1.272-1.651a1.307 1.307 0 0 1 .523-.932 1.772 1.772 0 0 1 1.159-.16 2.424 2.424 0 0 0 1.636.171 2.144 2.144 0 0 0 1.319-1.12c.179-.339 1.151-.034 1.524.15a.9.9 0 0 0 1.269-.676 1.465 1.465 0 0 1 .466.045c.073.019.135.037.188.054.193.066.267.123.276.117a1.8 1.8 0 0 1-.474.785 7.746 7.746 0 0 0-.6.586.855.855 0 0 0 .019 1.177.887.887 0 0 0 1.194.064 6.261 6.261 0 0 0 .668-.639 1.926 1.926 0 0 1 1.067-.527.606.606 0 0 1 .469.244.279.279 0 0 1 .067.347 2.37 2.37 0 0 1-1.575 1.161.864.864 0 1 0 .211 1.714 1.188 1.188 0 0 1 1.053.237c.142.184-.007.546-.078.692zm1.9-1.436l-.29-.073a2 2 0 0 0-.1-.2 2.07 2.07 0 0 0-.3-.328 3.193 3.193 0 0 0 .826-1.179 1.985 1.985 0 0 0-.417-2.112 2.369 2.369 0 0 0-1.769-.806h-.053c.663-1.242 2.61-4.117 4.618-4.38a4.638 4.638 0 0 1 .848 3.271 3.385 3.385 0 0 1-2.163 1.711l-.851.2.416 1.678.851-.2a5.038 5.038 0 0 0 .785-.26 5.522 5.522 0 0 0 1.644 2.926 7.872 7.872 0 0 1-4.051-.245z" transform="translate(-244.876 -248.815) translate(0 -.147)"/>
    </g>
</svg>
