<svg xmlns="http://www.w3.org/2000/svg" width="44.306" height="28.958" viewBox="0 0 44.306 28.958">
    <defs>
        <style>
            .cls-1{fill:#1a1311}
        </style>
    </defs>
    <g id="Group_238" transform="translate(-188.507 -251.628)">
        <path id="Path_206" d="M229.179 270.834a1.25 1.25 0 0 0-1.2 1.3 5.2 5.2 0 0 1-.137 1.809c-.486 2.426-2.871 2.979-6.187 3.5l-.128.02a55.723 55.723 0 0 1-8.012.605c-.976.011-1.974-.006-2.968-.032-.027 0-.053-.006-.081 0h-.406a1.262 1.262 0 0 0-.138.006c-.975.025-1.952.042-2.91.031a55.7 55.7 0 0 1-8.012-.613l-.128-.02c-3.316-.518-5.7-1.071-6.188-3.5a5.175 5.175 0 0 1-.136-1.809 1.241 1.241 0 1 0-2.48-.085 7.5 7.5 0 0 0 .185 2.4c.869 4.331 5.131 5 8.242 5.481l.127.02a58.109 58.109 0 0 0 8.364.635h.861c.8 0 1.611-.015 2.419-.038.807.023 1.617.038 2.418.038h.862a58.132 58.132 0 0 0 8.364-.635l.127-.02c3.111-.486 7.372-1.151 8.241-5.482a7.446 7.446 0 0 0 .185-2.4 1.248 1.248 0 0 0-1.284-1.211z" class="cls-1"/>
        <path id="Path_207" d="M193.853 269.833a5.333 5.333 0 0 0 4.179-2.023 5.33 5.33 0 0 0 8.36 0 5.328 5.328 0 0 0 8.448-.117 5.328 5.328 0 0 0 8.448.117 5.342 5.342 0 1 0 4.34-8.661 5.339 5.339 0 0 0-9.147-5.381 5.327 5.327 0 0 0-8.447-.117 5.33 5.33 0 0 0-8.36 0 5.338 5.338 0 0 0-9 5.624 5.344 5.344 0 0 0 1.177 10.558zm8.359-2.332a3.014 3.014 0 1 1 1.167-5.793l.02.01a3.013 3.013 0 0 1-1.187 5.783zm8.36 0a3.014 3.014 0 1 1 1.167-5.793l.022.011a3.013 3.013 0 0 1-1.189 5.782zm8.535 0a3.014 3.014 0 1 1 1.166-5.793l.023.011a3.013 3.013 0 0 1-1.189 5.782zm11.374-3.014a3.014 3.014 0 1 1-3.014-3.014 3.018 3.018 0 0 1 3.014 3.014zm-7.732-10.527a3.014 3.014 0 1 1-1.166 5.793l-.024-.012a3.013 3.013 0 0 1 1.19-5.781zm-8.535 0a3.014 3.014 0 1 1-1.167 5.793l-.021-.011a3.013 3.013 0 0 1 1.188-5.782zm-8.36 0a3.014 3.014 0 1 1-1.166 5.793l-.024-.012a3.013 3.013 0 0 1 1.19-5.781zm-8.36 0a3.014 3.014 0 1 1-1.166 5.793l-.022-.011a3.013 3.013 0 0 1 1.188-5.782zm-3.641 7.513a3 3 0 0 1 1.166.235l.022.011a3.01 3.01 0 1 1-1.188-.246z" class="cls-1"/>
    </g>
</svg>
