<svg xmlns="http://www.w3.org/2000/svg" width="34" height="32" viewBox="0 0 34 32">
    <defs>
        <style>
            .cls-1{fill:#1a1311}
        </style>
    </defs>
    <g id="Group_1691" transform="translate(-289.841 -243.54)">
        <path id="Path_210" d="M323.838 260.054a.83.83 0 0 0-.829-.788h-15.882a1.658 1.658 0 0 0 .088-.5v-8.219a1.645 1.645 0 0 0-.129-.608h16v-1.247H305.7a3.025 3.025 0 0 0-1.949 0h-1.375a3.027 3.027 0 0 0-1.949 0h-1.374a3.024 3.024 0 0 0-1.948 0h-2.419v1.247h1.029a1.644 1.644 0 0 0-.129.608v8.219a1.635 1.635 0 0 0 .089.5h-5a.831.831 0 0 0-.831.831c0 9.937 7.84 12.275 11.307 12.821v2.569a.831.831 0 0 0 .831.831h10.11a.831.831 0 0 0 .831-.831v-2.637a12.723 12.723 0 0 0 10.915-12.796zm-22.1-10.12a.682.682 0 0 1 .488.608v8.219a.623.623 0 0 1-.3.5h-1.067a.625.625 0 0 1-.3-.5v-8.219a.681.681 0 0 1 .489-.608zm3.811.608v8.219a.623.623 0 0 1-.3.5h-1.067a.625.625 0 0 1-.3-.5v-8.219a.681.681 0 0 1 .489-.608h.685a.681.681 0 0 1 .497.609zm-8.309 8.219v-8.219a.681.681 0 0 1 .489-.608h.685a.681.681 0 0 1 .488.608v8.219a.623.623 0 0 1-.3.5h-1.067a.625.625 0 0 1-.291-.499zm14.014 15.895h-8.444v-1.178h8.448zm.068-3.233h-8.551c-.448-.007-10.722-.279-11.251-10.5h30.645c-.134 2.39-1.356 9.346-10.839 10.501z" class="cls-1" transform="translate(0 -.779)"/>
        <path id="Path_1148" d="M0 0l28.317-.046v1.265L0 1.265z" class="cls-1" transform="rotate(-5.005 2962.34 -3248.305)"/>
    </g>
</svg>
